<?xml version="1.0" encoding="UTF-8" standalone="no"?>
<!-- Created with Inkscape (http://www.inkscape.org/) -->

<svg
   width="647.67242mm"
   height="211.81129mm"
   viewBox="0 0 647.67242 211.81129"
   version="1.1"
   id="svg1"
   xmlns="http://www.w3.org/2000/svg"
   xmlns:svg="http://www.w3.org/2000/svg">
  <defs
     id="defs1">
    <linearGradient
       id="swatch57">
      <stop
         style="stop-color:#797979;stop-opacity:1;"
         offset="0"
         id="stop58" />
    </linearGradient>
    <linearGradient
       id="swatch18">
      <stop
         style="stop-color:#f7f7f7;stop-opacity:1;"
         offset="0"
         id="stop18" />
    </linearGradient>
    <filter
       style="color-interpolation-filters:sRGB"
       id="filter30"
       x="-0.026594413"
       y="-0.098544271"
       width="1.0531888"
       height="1.1970885">
      <feGaussianBlur
         stdDeviation="0.98677871"
         result="blur"
         id="feGaussianBlur30" />
    </filter>
    <filter
       style="color-interpolation-filters:sRGB"
       id="filter31"
       x="-0.14536872"
       y="-0.14596889"
       width="1.2906574"
       height="1.5207758">
      <feGaussianBlur
         stdDeviation="5.11 5.05658"
         result="blur"
         id="feGaussianBlur31" />
    </filter>
  </defs>
  <g
     id="layer1"
     style="display:inline"
     transform="translate(625.00825,1009.9019)">
    <g
       id="g31"
       transform="translate(-366.13719,-824.35925)"
       style="display:inline;fill:#000000;fill-opacity:1;stroke:#030303;stroke-opacity:1;filter:url(#filter31)">
      <path
         id="path30"
         style="fill:#000000;fill-opacity:1;stroke:#030303;stroke-width:80;stroke-dasharray:none;stroke-opacity:1"
         d="m -167.0694,-133.40697 a 39.537212,38.710087 0 0 0 -39.53763,38.710297 39.537212,38.710087 0 0 0 39.53763,38.709771 39.537212,38.710087 0 0 0 3.32641,-0.23254 c 0.94501,-0.24496 1.80623,-0.5648 2.57969,-0.96325 2.00784,-1.09518 3.0117,-3.04219 3.0117,-5.84099 0,-1.94699 -0.54761,-3.46836 -1.64279,-4.56354 -1.03434,-1.09519 -2.5552,-2.12916 -4.56303,-3.10266 -2.00783,-1.03433 -4.4111,-2.28163 -7.2099,-3.74188 -2.7988,-1.52108 -5.35466,-3.16392 -7.66671,-4.92838 -2.31205,-1.764461 -4.13708,-3.833441 -5.47564,-6.206341 -1.33855,-2.43374 -2.00814,-5.35399 -2.00814,-8.76122 0,-5.840977 1.947,-10.191237 5.84099,-13.050887 3.95482,-2.85964 9.12676,-4.28966 15.51533,-4.28966 2.55542,0 5.59765,0.30417 9.12657,0.91261 3.52892,0.54759 6.99678,1.64281 10.40402,3.28558 l -4.1982,10.313067 c -2.98133,-1.27771 -5.68876,-2.19023 -8.1225,-2.73782 -2.43374,-0.547587 -4.59356,-0.821647 -6.4797,-0.821647 -2.98133,0 -5.17178,0.60834 -6.57118,1.825207 -1.33856,1.21687 -2.00763,2.95106 -2.00763,5.20227 0,1.76446 0.42563,3.19447 1.27744,4.28966 0.85181,1.09518 2.12974,2.09905 3.83336,3.0117 1.70362,0.85181 3.86344,1.94703 6.47971,3.28559 3.58976,1.76446 6.63199,3.498131 9.12657,5.201751 2.55543,1.64277 4.50243,3.55967 5.84099,5.75004 1.33856,2.19035 2.00763,4.98914 2.00763,8.39637 0,0.29684 -0.017,0.58268 -0.0274,0.87282 a 39.537212,38.710087 0 0 0 17.13953,-31.815621 39.537212,38.710087 0 0 0 -39.53712,-38.710297 z" />
      <path
         id="path31"
         style="display:inline;fill:#000000;fill-opacity:1;stroke:#030303;stroke-width:0.5397;stroke-dasharray:none;stroke-opacity:1"
         d="m -167.06351,-165.21244 a 71.127314,69.639319 0 0 0 -71.12806,69.639676 71.127314,69.639319 0 0 0 71.12806,69.63878 71.127314,69.639319 0 0 0 5.9842,-0.418339 c 1.70007,-0.440683 3.24943,-1.016074 4.64088,-1.732883 3.61209,-1.970226 5.41802,-5.472891 5.41802,-10.507923 0,-3.502628 -0.98514,-6.239568 -2.95536,-8.209794 -1.86077,-1.970242 -4.5968,-3.830351 -8.20889,-5.581674 -3.61208,-1.860756 -7.93556,-4.104646 -12.97059,-6.73163 -5.03503,-2.736417 -9.633,-5.691881 -13.79238,-8.86614 -4.15937,-3.174257 -7.4426,-6.896345 -9.85064,-11.165195 -2.40806,-4.378291 -3.61266,-9.63181 -3.61266,-15.761422 0,-10.507876 3.50267,-18.334006 10.50792,-23.478486 7.11472,-5.14448 16.41901,-7.71708 27.91203,-7.71708 4.59719,0 10.07017,0.5472 16.41868,1.64177 6.34852,0.98512 12.58719,2.95542 18.7168,5.91075 l -7.55255,18.553186 c -5.36341,-2.298596 -10.23406,-3.940226 -14.61236,-4.925326 -4.37828,-0.98511 -8.2638,-1.47814 -11.65696,-1.47814 -5.36341,0 -9.30402,1.0944 -11.82154,3.28354 -2.40806,2.18915 -3.61172,5.308946 -3.61172,9.358838 0,3.174277 0.76571,5.746862 2.29812,7.717112 1.5324,1.970217 3.83139,3.776178 6.8962,5.418029 3.06481,1.532403 6.95031,3.502713 11.65699,5.910777 6.45797,3.174258 11.93092,6.293124 16.41866,9.357931 4.59722,2.955338 8.09987,6.403835 10.50793,10.344303 2.40806,3.940432 3.61172,8.975446 3.61172,15.105042 0,0.534014 -0.0306,1.04824 -0.0493,1.570201 a 71.127314,69.639319 0 0 0 30.833964,-57.236227 71.127314,69.639319 0 0 0 -71.127174,-69.639676 z" />
    </g>
    <text
       xml:space="preserve"
       style="font-style:italic;font-variant:normal;font-weight:normal;font-stretch:normal;font-size:35.2778px;line-height:0;font-family:FreeSerif;-inkscape-font-specification:'FreeSerif, Italic';font-variant-ligatures:normal;font-variant-position:normal;font-variant-caps:normal;font-variant-numeric:normal;font-variant-east-asian:normal;white-space:pre;inline-size:222.494;display:inline;fill:#000000;fill-opacity:0.549153;stroke:#434343;stroke-width:0.102646;stroke-linecap:square;stroke-dasharray:none;stroke-opacity:1;filter:url(#filter30)"
       x="-419.65485"
       y="-880.00494"
       id="text29"
       transform="matrix(5.0830967,0,0,4.667984,1677.9938,3258.9787)"><tspan
         x="-419.65485"
         y="-880.00494"
         id="tspan1">anEdit</tspan></text>
    <g
       id="g5"
       transform="translate(-366.13719,-824.35925)"
       style="fill:#4b4b4b;fill-opacity:1;stroke:#ffffff;stroke-opacity:1">
      <path
         id="path3"
         style="fill:#4b4b4b;fill-opacity:1;stroke:#ffffff;stroke-width:80;stroke-dasharray:none;stroke-opacity:1"
         d="m -167.0694,-133.40697 a 39.537212,38.710087 0 0 0 -39.53763,38.710297 39.537212,38.710087 0 0 0 39.53763,38.709771 39.537212,38.710087 0 0 0 3.32641,-0.23254 c 0.94501,-0.24496 1.80623,-0.5648 2.57969,-0.96325 2.00784,-1.09518 3.0117,-3.04219 3.0117,-5.84099 0,-1.94699 -0.54761,-3.46836 -1.64279,-4.56354 -1.03434,-1.09519 -2.5552,-2.12916 -4.56303,-3.10266 -2.00783,-1.03433 -4.4111,-2.28163 -7.2099,-3.74188 -2.7988,-1.52108 -5.35466,-3.16392 -7.66671,-4.92838 -2.31205,-1.764461 -4.13708,-3.833441 -5.47564,-6.206341 -1.33855,-2.43374 -2.00814,-5.35399 -2.00814,-8.76122 0,-5.840977 1.947,-10.191237 5.84099,-13.050887 3.95482,-2.85964 9.12676,-4.28966 15.51533,-4.28966 2.55542,0 5.59765,0.30417 9.12657,0.91261 3.52892,0.54759 6.99678,1.64281 10.40402,3.28558 l -4.1982,10.313067 c -2.98133,-1.27771 -5.68876,-2.19023 -8.1225,-2.73782 -2.43374,-0.547587 -4.59356,-0.821647 -6.4797,-0.821647 -2.98133,0 -5.17178,0.60834 -6.57118,1.825207 -1.33856,1.21687 -2.00763,2.95106 -2.00763,5.20227 0,1.76446 0.42563,3.19447 1.27744,4.28966 0.85181,1.09518 2.12974,2.09905 3.83336,3.0117 1.70362,0.85181 3.86344,1.94703 6.47971,3.28559 3.58976,1.76446 6.63199,3.498131 9.12657,5.201751 2.55543,1.64277 4.50243,3.55967 5.84099,5.75004 1.33856,2.19035 2.00763,4.98914 2.00763,8.39637 0,0.29684 -0.017,0.58268 -0.0274,0.87282 a 39.537212,38.710087 0 0 0 17.13953,-31.815621 39.537212,38.710087 0 0 0 -39.53712,-38.710297 z" />
      <path
         id="path5"
         style="display:inline;fill:#4b4b4b;fill-opacity:1;stroke:#ffffff;stroke-width:0.5397;stroke-dasharray:none;stroke-opacity:1"
         d="m -167.06351,-165.21244 a 71.127314,69.639319 0 0 0 -71.12806,69.639676 71.127314,69.639319 0 0 0 71.12806,69.63878 71.127314,69.639319 0 0 0 5.9842,-0.418339 c 1.70007,-0.440683 3.24943,-1.016074 4.64088,-1.732883 3.61209,-1.970226 5.41802,-5.472891 5.41802,-10.507923 0,-3.502628 -0.98514,-6.239568 -2.95536,-8.209794 -1.86077,-1.970242 -4.5968,-3.830351 -8.20889,-5.581674 -3.61208,-1.860756 -7.93556,-4.104646 -12.97059,-6.73163 -5.03503,-2.736417 -9.633,-5.691881 -13.79238,-8.86614 -4.15937,-3.174257 -7.4426,-6.896345 -9.85064,-11.165195 -2.40806,-4.378291 -3.61266,-9.63181 -3.61266,-15.761422 0,-10.507876 3.50267,-18.334006 10.50792,-23.478486 7.11472,-5.14448 16.41901,-7.71708 27.91203,-7.71708 4.59719,0 10.07017,0.5472 16.41868,1.64177 6.34852,0.98512 12.58719,2.95542 18.7168,5.91075 l -7.55255,18.553186 c -5.36341,-2.298596 -10.23406,-3.940226 -14.61236,-4.925326 -4.37828,-0.98511 -8.2638,-1.47814 -11.65696,-1.47814 -5.36341,0 -9.30402,1.0944 -11.82154,3.28354 -2.40806,2.18915 -3.61172,5.308946 -3.61172,9.358838 0,3.174277 0.76571,5.746862 2.29812,7.717112 1.5324,1.970217 3.83139,3.776178 6.8962,5.418029 3.06481,1.532403 6.95031,3.502713 11.65699,5.910777 6.45797,3.174258 11.93092,6.293124 16.41866,9.357931 4.59722,2.955338 8.09987,6.403835 10.50793,10.344303 2.40806,3.940432 3.61172,8.975446 3.61172,15.105042 0,0.534014 -0.0306,1.04824 -0.0493,1.570201 a 71.127314,69.639319 0 0 0 30.833964,-57.236227 71.127314,69.639319 0 0 0 -71.127174,-69.639676 z" />
    </g>
    <text
       xml:space="preserve"
       style="font-style:italic;font-variant:normal;font-weight:normal;font-stretch:normal;font-size:35.2778px;line-height:0;font-family:FreeSerif;-inkscape-font-specification:'FreeSerif, Italic';font-variant-ligatures:normal;font-variant-position:normal;font-variant-caps:normal;font-variant-numeric:normal;font-variant-east-asian:normal;white-space:pre;inline-size:222.494;fill:#ffffff;fill-opacity:1;stroke:#000000;stroke-width:0.102646;stroke-linecap:square;stroke-dasharray:none;stroke-opacity:1"
       x="-419.65485"
       y="-880.00494"
       id="text5"
       transform="matrix(5.0830966,0,0,4.6679839,1677.9938,3258.9788)"><tspan
         x="-419.65485"
         y="-880.00494"
         id="tspan2">anEdit</tspan></text>
  </g>
</svg>
